<?xml version="1.0" encoding="UTF-8"?>
<!-- Generated by Pixelmator Pro 3.4.3 -->
<svg width="4793" height="1661" viewBox="0 0 4793 1661" xmlns="http://www.w3.org/2000/svg">
    <path id="Percorso" fill="#282a36" stroke="none" d="M 3544.174316 8.445068 C 3350.629883 8.445068 3193.741699 377.355225 3193.741699 832.456543 C 3193.741699 1287.558105 3350.629883 1656.467285 3544.174316 1656.467285 L 4245.046875 1656.467285 C 4438.591309 1656.467285 4595.479492 1287.557617 4595.479492 832.456543 C 4595.479492 377.355225 4438.591309 8.445068 4245.046875 8.445068 L 3544.174316 8.445068 Z"/>
    <path id="path1" fill="#282a36" stroke="none" d="M 425.045654 -0.360107 L 4358.516602 -0.360107 C 4409.162598 -0.360107 4439.552734 -0.360107 4459.809082 8.0979 C 4489.015137 18.727783 4512.021484 41.734131 4522.649414 70.939209 C 4531.111328 91.198486 4531.111328 121.587158 4531.111328 172.234619 L 4531.111328 1483.873047 C 4531.111328 1534.520752 4531.111328 1564.909424 4522.649414 1585.168457 C 4512.021484 1614.373657 4489.015137 1637.380127 4459.809082 1648.009888 C 4439.552734 1656.467896 4409.162598 1656.467896 4358.516602 1656.467896 L 425.045654 1656.467896 C 374.397949 1656.467896 344.009033 1656.467896 323.750244 1648.009888 C 294.544922 1637.380127 271.538818 1614.373657 260.908691 1585.168457 C 252.450684 1564.909424 252.450684 1534.520752 252.450684 1483.873047 L 252.450684 172.234619 C 252.450684 121.587158 252.450684 91.198486 260.908691 70.939209 C 271.538818 41.734131 294.544922 18.727783 323.750244 8.0979 C 344.009033 -0.360107 374.397949 -0.360107 425.045654 -0.360107 Z"/>
    <path id="path2" fill="#282a36" stroke="none" d="M 3142.817871 8.445068 C 2949.272461 8.445068 2792.378906 377.355225 2792.378906 832.456543 C 2792.378906 1287.558105 2949.272461 1656.467285 3142.817871 1656.467285 L 3843.684082 1656.467285 C 4037.229004 1656.467285 4194.117676 1287.557617 4194.117676 832.456543 C 4194.117676 377.355225 4037.229004 8.445068 3843.684082 8.445068 L 3142.817871 8.445068 Z"/>
    <path id="path3" fill="#282a36" stroke="none" d="M 2597.804199 8.445068 C 2404.259277 8.445068 2247.369141 377.355225 2247.369141 832.456543 C 2247.369141 1287.558105 2404.259277 1656.467285 2597.804199 1656.467285 L 3298.672363 1656.467285 C 3492.217773 1656.467285 3649.105957 1287.557617 3649.105957 832.456543 C 3649.105957 377.355225 3492.217773 8.445068 3298.672363 8.445068 L 2597.804199 8.445068 Z"/>
    <path id="path4" fill="#282a36" stroke="none" d="M 2264.81543 8.445068 C 2071.270508 8.445068 1914.380371 377.355225 1914.380371 832.456543 C 1914.380371 1287.558105 2071.270508 1656.467285 2264.81543 1656.467285 L 2965.684082 1656.467285 C 3159.229492 1656.467285 3316.117676 1287.557617 3316.117676 832.456543 C 3316.117676 377.355225 3159.229492 8.445068 2965.684082 8.445068 L 2264.81543 8.445068 Z"/>
    <path id="path5" fill="#282a36" stroke="none" d="M 350.010986 8.445068 C 156.466309 8.445068 -0.423828 377.355225 -0.423828 832.456543 C -0.423828 1287.558105 156.466309 1656.467285 350.010986 1656.467285 L 1050.880615 1656.467285 C 1244.425781 1656.467285 1401.31543 1287.557617 1401.31543 832.456543 C 1401.31543 377.355225 1244.42627 8.445068 1050.880615 8.445068 L 350.010986 8.445068 Z"/>
    <path id="path6" fill="#282a36" stroke="none" d="M 3742.119629 8.445068 C 3548.574707 8.445068 3391.687012 377.355225 3391.687012 832.456543 C 3391.687012 1287.558105 3548.574707 1656.467285 3742.119629 1656.467285 L 4442.98584 1656.467285 C 4636.53125 1656.467285 4793.424805 1287.557617 4793.424805 832.456543 C 4793.424805 377.355225 4636.536621 8.445068 4442.98584 8.445068 L 3742.119629 8.445068 Z"/>
    <path id="path7" fill="#282a36" stroke="none" d="M 491.164307 4.042236 L 1454.92334 4.042236 C 1549.901367 4.042236 1606.888672 4.042236 1644.879883 19.903564 C 1699.647461 39.837158 1742.790039 82.97998 1762.724121 137.747803 C 1778.584961 175.739014 1778.584961 232.725586 1778.584961 327.704346 L 1778.584961 1337.208496 C 1778.584961 1432.186279 1778.584961 1489.173828 1762.724121 1527.165039 C 1742.790039 1581.932861 1699.647461 1625.075195 1644.879883 1645.009277 C 1606.888672 1660.869751 1549.901367 1660.869751 1454.92334 1660.869751 L 491.164307 1660.869751 C 396.185791 1660.869751 339.198975 1660.869751 301.207764 1645.009277 C 246.439941 1625.075195 203.297607 1581.932861 183.363525 1527.165039 C 167.502686 1489.173828 167.502686 1432.186279 167.502686 1337.208496 L 167.502686 327.704346 C 167.502686 232.725586 167.502686 175.739014 183.363525 137.747803 C 203.297607 82.97998 246.439941 39.837158 301.207764 19.903564 C 339.198975 4.042236 396.185791 4.042236 491.164307 4.042236 Z"/>
    <path id="path8" fill="#282a36" stroke="none" d="M 780.765137 4.042236 C 606.896729 4.042236 465.957275 374.923096 465.957275 832.456055 C 465.957275 1289.989258 606.896729 1660.869751 780.765137 1660.869751 L 1410.379883 1660.869751 C 1584.248047 1660.869751 1725.187012 1289.989258 1725.187012 832.456055 C 1725.187012 374.923096 1584.248047 4.042236 1410.379883 4.042236 L 780.765137 4.042236 Z"/>
    <path id="path9" fill="#282a36" stroke="none" d="M 1537.10791 8.445068 C 1343.562988 8.445068 1186.67334 377.355225 1186.67334 832.456543 C 1186.67334 1287.558105 1343.562988 1656.467285 1537.10791 1656.467285 L 2237.978027 1656.467285 C 2431.522949 1656.467285 2588.412598 1287.557617 2588.412598 832.456543 C 2588.412598 377.355225 2431.522949 8.445068 2237.978027 8.445068 L 1537.10791 8.445068 Z"/>
    <path id="path10" fill="#282a36" stroke="none" d="M 1127.000977 52.817627 C 953.132813 52.817627 812.193115 401.861816 812.193115 832.456543 C 812.193115 1263.051025 953.132813 1612.094849 1127.000977 1612.094849 L 1756.616211 1612.094849 C 1930.484375 1612.094849 2071.423828 1263.050537 2071.423828 832.456543 C 2071.423828 401.861816 1930.484375 52.817627 1756.616211 52.817627 L 1127.000977 52.817627 Z"/>
    <path id="path11" fill="#282a36" stroke="none" d="M 1462.225586 52.817627 C 1288.357422 52.817627 1147.418213 401.861816 1147.418213 832.456543 C 1147.418213 1263.051025 1288.357422 1612.094849 1462.225586 1612.094849 L 2091.84082 1612.094849 C 2265.708984 1612.094849 2406.647949 1263.050537 2406.647949 832.456543 C 2406.647949 401.861816 2265.708984 52.817627 2091.84082 52.817627 L 1462.225586 52.817627 Z"/>
    <path id="path12" fill="#6bd8e5" stroke="none" d="M 410.435059 92.21875 C 241.121582 92.21875 103.874268 423.623291 103.874268 832.456543 C 103.874268 1241.289795 241.121582 1572.693604 410.435059 1572.693604 L 1023.557129 1572.693604 C 1192.870605 1572.693604 1330.117676 1241.289307 1330.117676 832.456543 C 1330.117676 423.623291 1192.870605 92.21875 1023.557129 92.21875 L 410.435059 92.21875 Z"/>
    <path id="path13" fill="#6bd8e5" stroke="none" d="M 1373.699219 92.21875 C 1199.831055 92.21875 1058.891357 423.623291 1058.891357 832.456543 C 1058.891357 1241.289795 1199.831055 1572.693604 1373.699219 1572.693604 L 2003.314453 1572.693604 C 2177.182617 1572.693604 2318.12207 1241.289307 2318.12207 832.456543 C 2318.12207 423.623291 2177.182617 92.21875 2003.314453 92.21875 L 1373.699219 92.21875 Z"/>
    <path id="path14" fill="#6bd8e5" stroke="none" d="M 768.824219 92.21875 C 599.510498 92.21875 462.262939 423.623291 462.262939 832.456543 C 462.262939 1241.289795 599.510498 1572.693604 768.824219 1572.693604 L 1381.945801 1572.693604 C 1551.259277 1572.693604 1688.506836 1241.289307 1688.506836 832.456543 C 1688.506836 423.623291 1551.259766 92.21875 1381.945801 92.21875 L 768.824219 92.21875 Z"/>
    <g id="Gruppo">
        <path id="Testo" fill="#ced7df" stroke="none" d="M 3313.210938 1324.912109 C 3241.628174 1324.841919 3196.384521 1299.786987 3177.476563 1249.746094 C 3158.419678 1199.311157 3158.322998 1126.744629 3177.1875 1032.048828 L 3271.542969 565.916016 L 3516.792969 564.816406 L 3419.693359 1033.714844 C 3413.403809 1064.973877 3411.450928 1090.244507 3413.833984 1109.523438 C 3416.217041 1128.80249 3427.510986 1138.395508 3447.71875 1138.304688 C 3466.0896 1138.222168 3480.287109 1129.202881 3490.310547 1111.246094 C 3500.334229 1093.289307 3508.937744 1065.922852 3516.121094 1029.148438 L 3610.482422 564.394531 L 3852.976563 563.306641 L 3703.386719 1309.386719 L 3466.404297 1310.451172 L 3474.324219 1233.255859 L 3466.058594 1233.292969 C 3444.153809 1264.622192 3420.373779 1287.693848 3394.720703 1302.505859 C 3369.067627 1317.317871 3342.464355 1324.784424 3314.908203 1324.908203 C 3314.341309 1324.910767 3313.774658 1324.912598 3313.210938 1324.912109 Z M 4187.841797 1320.982422 C 4146.56543 1320.864014 4115.259277 1311.133667 4093.923828 1291.789063 C 4072.249512 1272.137451 4058.119629 1244.873535 4051.533203 1209.998047 L 4044.638672 1208.650391 L 4018.904297 1307.970703 L 3781.921875 1309.033203 L 3985.460938 303.679688 L 4227.955078 302.589844 L 4160.574219 639.083984 L 4170.226563 640.417969 C 4206.691895 578.711182 4255.694336 547.719604 4317.236328 547.443359 C 4360.407715 547.249512 4393.061523 557.437744 4415.199219 578.005859 C 4437.336914 598.573975 4451.934082 627.213257 4458.988281 663.923828 C 4466.04248 700.634277 4467.382324 743.339905 4463.007813 792.042969 C 4458.633789 840.745972 4450.603027 893.600647 4438.917969 950.603516 C 4411.04541 1084.837646 4376.797363 1180.061157 4336.173828 1236.275391 C 4295.550293 1292.489624 4246.763672 1320.724731 4189.814453 1320.980469 C 4189.154297 1320.983398 4188.49707 1320.984375 4187.841797 1320.982422 Z M 2460.605469 1314.966797 L 2665.523438 309.605469 L 2906.638672 308.521484 L 2837.878906 645.023438 L 2847.525391 644.978516 C 2867.605225 616.413086 2889.779785 594.039185 2914.048828 577.855469 C 2938.318115 561.671753 2966.06665 553.509399 2997.296875 553.369141 C 3073.5354 553.026855 3120.728516 578.995361 3138.875 631.271484 C 3157.021729 683.547729 3156.194092 755.198669 3136.394531 846.224609 L 3039.285156 1312.367188 L 2799.546875 1313.445313 L 2893.888672 844.556641 C 2901.092529 812.374878 2903.50415 786.644165 2901.121094 767.365234 C 2898.738037 748.086243 2886.983643 738.494995 2865.857422 738.589844 C 2850.242432 738.659973 2837.869873 745.146118 2828.742188 758.046875 C 2819.614502 770.947632 2811.888916 789.352844 2805.566406 813.263672 L 2703.099609 1313.876953 L 2460.605469 1314.966797 Z M 4114.529297 1124.289063 C 4132.899902 1124.206543 4148.446777 1108.750488 4161.167969 1077.921875 C 4173.88916 1047.093262 4186.98584 997.662415 4200.458984 929.628906 C 4213.029785 865.273621 4220.155273 815.867371 4221.837891 781.414063 C 4223.52002 746.960693 4212.420898 729.789246 4188.539063 729.896484 C 4171.086914 729.974792 4156.677246 742.899292 4145.310547 768.669922 C 4133.944336 794.440491 4121.058105 839.507568 4106.650391 903.871094 L 4097.183594 943.871094 C 4084.575684 999.959534 4078.115723 1044.077759 4077.800781 1076.228516 C 4077.48584 1108.379395 4089.72876 1124.400391 4114.529297 1124.289063 Z"/>
    </g>
    <g id="g1">
        <path id="path15" fill="#282a37" stroke="none" d="M 689.462891 1335.779297 C 590.593384 1335.603638 506.888397 1315.846191 438.349609 1276.503906 C 368.722931 1236.537109 316.617432 1180.51709 282.033203 1108.447266 C 247.449005 1036.377441 231.331985 952.650391 233.681641 857.265625 C 237.795883 742.427734 263.97287 643.463379 312.212891 560.373047 C 360.452911 477.282837 426.138214 412.864624 509.269531 367.119141 C 592.400879 321.373779 688.135193 298.257935 796.470703 297.771484 C 882.583557 297.384888 958.113525 311.629639 1023.060547 340.505859 C 1088.007568 369.38208 1139.352051 410.356201 1177.091797 463.429688 C 1214.831665 516.503174 1234.786987 578.685181 1236.958984 649.974609 L 952.25 655.419922 C 947.441528 615.625122 930.171387 584.68335 900.441406 562.59375 C 870.711365 540.50415 833.160339 529.559937 787.789063 529.763672 C 705.380005 530.133667 640.699219 560.287109 593.744141 620.222656 C 546.789124 680.158081 521.677429 758.747498 518.410156 855.988281 C 516.023071 943.039551 532.973206 1006.159119 569.261719 1045.349609 C 605.550232 1084.540161 654.250977 1103.999023 715.363281 1103.724609 C 827.402588 1103.22168 895.230408 1051.98938 918.847656 950.027344 L 716.066406 950.9375 L 754.138672 768.814453 L 1243.039063 766.619141 L 1218.617188 895.900391 C 1198.720215 1001.549561 1163.684937 1086.434082 1113.507813 1150.550781 C 1063.330688 1214.66748 1002.426697 1261.469482 930.796875 1290.958984 C 859.167175 1320.448486 780.294495 1335.386841 694.181641 1335.773438 C 692.604614 1335.780518 691.032227 1335.782104 689.462891 1335.779297 Z M 1189.962891 1319.658203 L 1395.144531 306.195313 L 1802.097656 304.367188 C 1837.283569 304.209229 1874.803223 308.208496 1914.65625 316.363281 C 1954.509277 324.518066 1991.614868 339.630371 2025.974609 361.699219 C 2060.334229 383.768066 2087.790039 414.894897 2108.341797 455.082031 C 2128.893311 495.269165 2138.388916 547.775146 2136.828125 612.599609 C 2134.403564 691.317322 2114.801758 759.233826 2078.019531 816.345703 C 2041.237549 873.457581 1991.662964 917.430847 1929.298828 948.267578 C 1866.934814 979.10437 1795.47522 994.704773 1714.917969 995.066406 L 1537.134766 995.863281 L 1471.914063 1318.392578 L 1189.962891 1319.658203 Z M 1581.966797 772.042969 L 1711.134766 771.462891 C 1754.654175 771.267517 1788.169922 759.774048 1811.679688 736.982422 C 1835.189331 714.190796 1847.31897 683.346985 1848.070313 644.453125 C 1849.789185 614.814575 1842.741577 591.697876 1826.925781 575.101563 C 1811.109863 558.505249 1788.386108 550.273315 1758.755859 550.40625 L 1626.808594 550.998047 L 1581.966797 772.042969 Z"/>
    </g>
</svg>
